<?xml version="1.0" encoding="windows-1252" standalone="no"?>
<svg xmlns="http://www.w3.org/2000/svg" xmlns:xlink="http://www.w3.org/1999/xlink" contentStyleType="text/css" height="1417px" preserveAspectRatio="none" style="width:2116px;height:1417px;background:#FFFFFF;" version="1.1" viewBox="0 0 2116 1417" width="2116px" zoomAndPan="magnify"><defs/><g><!--class AppContainer--><g id="elem_AppContainer"><rect codeLine="5" fill="#FFFFFF" height="72.5625" id="AppContainer" rx="2.5" ry="2.5" style="stroke:#000000;stroke-width:1.0;" width="238" x="244.5" y="620"/><ellipse cx="310.75" cy="640.1328" fill="#FFFFFF" rx="9" ry="9" style="stroke:#000000;stroke-width:1.0;"/><path d="M311.7031,636.9141 L313.4219,636.9141 C313.8125,636.9141 314,636.8828 314.125,636.8047 C314.3906,636.6484 314.5313,636.3672 314.5313,636.0703 C314.5313,635.8047 314.4219,635.5391 314.1875,635.3672 C314.0156,635.2578 313.875,635.2266 313.4219,635.2266 L308.2813,635.2266 C307.8438,635.2266 307.7188,635.2422 307.5625,635.3359 C307.3125,635.4922 307.1563,635.7891 307.1563,636.0703 C307.1563,636.3516 307.2969,636.6016 307.5156,636.7734 C307.6719,636.8828 307.8594,636.9141 308.2813,636.9141 L310,636.9141 L310,643.4297 L308.2813,643.4297 C307.8438,643.4297 307.7188,643.4453 307.5625,643.5547 C307.3125,643.7109 307.1563,643.9922 307.1563,644.2891 C307.1563,644.5391 307.2969,644.8047 307.5156,644.9609 C307.6719,645.0859 307.875,645.1328 308.2813,645.1328 L313.4219,645.1328 C314.1719,645.1328 314.5313,644.8516 314.5313,644.2891 C314.5313,644.0078 314.4219,643.7578 314.1875,643.5859 C314.0156,643.4609 313.875,643.4297 313.4219,643.4297 L311.7031,643.4297 L311.7031,636.9141 Z " fill="#000000"/><text fill="#000000" font-family="Verdana" font-size="12" font-style="italic" lengthAdjust="spacing" textLength="67" x="343.75" y="636.1387">«interface»</text><text fill="#000000" font-family="Verdana" font-size="14" font-style="italic" lengthAdjust="spacing" textLength="98" x="328.25" y="651.9639">AppContainer</text><line style="stroke:#000000;stroke-width:1.0;" x1="245.5" x2="481.5" y1="660.2656" y2="660.2656"/><text fill="#000000" font-family="Verdana" font-size="14" lengthAdjust="spacing" textLength="226" x="250.5" y="677.2607">plotRepository: PlotRepository</text><line style="stroke:#000000;stroke-width:1.0;" x1="245.5" x2="481.5" y1="684.5625" y2="684.5625"/></g><!--class AppContainerImpl--><g id="elem_AppContainerImpl"><rect codeLine="8" fill="#FFFFFF" height="92.8906" id="AppContainerImpl" rx="2.5" ry="2.5" style="stroke:#000000;stroke-width:1.0;" width="238" x="65.5" y="465"/><ellipse cx="114.25" cy="479" fill="#FFFFFF" rx="9" ry="9" style="stroke:#000000;stroke-width:1.0;"/><path d="M116.5938,474.6719 C115.6563,474.2344 115.0625,474.0938 114.1875,474.0938 C111.5625,474.0938 109.5625,476.1719 109.5625,478.8906 L109.5625,480.0156 C109.5625,482.5938 111.6719,484.4844 114.5625,484.4844 C115.7813,484.4844 116.9375,484.1875 117.6875,483.6406 C118.2656,483.2344 118.5938,482.7813 118.5938,482.3906 C118.5938,481.9375 118.2031,481.5469 117.7344,481.5469 C117.5156,481.5469 117.3125,481.625 117.125,481.8125 C116.6719,482.2969 116.6719,482.2969 116.4844,482.3906 C116.0625,482.6563 115.375,482.7813 114.6094,482.7813 C112.5625,482.7813 111.2656,481.6875 111.2656,479.9844 L111.2656,478.8906 C111.2656,477.1094 112.5156,475.7969 114.25,475.7969 C114.8281,475.7969 115.4375,475.9531 115.9063,476.2031 C116.3906,476.4844 116.5625,476.7031 116.6563,477.1094 C116.7188,477.5156 116.75,477.6406 116.8906,477.7656 C117.0313,477.9063 117.2656,478.0156 117.4844,478.0156 C117.75,478.0156 118.0156,477.875 118.1875,477.6563 C118.2969,477.5 118.3281,477.3125 118.3281,476.8906 L118.3281,475.4688 C118.3281,475.0313 118.3125,474.9063 118.2188,474.75 C118.0625,474.4844 117.7813,474.3438 117.4844,474.3438 C117.1875,474.3438 116.9844,474.4375 116.7656,474.75 L116.5938,474.6719 Z " fill="#000000"/><text fill="#000000" font-family="Verdana" font-size="14" lengthAdjust="spacing" textLength="133" x="131.75" y="483.8467">AppContainerImpl</text><line style="stroke:#000000;stroke-width:1.0;" x1="66.5" x2="302.5" y1="493" y2="493"/><text fill="#000000" font-family="Verdana" font-size="14" lengthAdjust="spacing" textLength="226" x="71.5" y="509.9951">plotRepository: PlotRepository</text><text fill="#000000" font-family="Verdana" font-size="14" lengthAdjust="spacing" textLength="186" x="71.5" y="526.292">db: EtherealPlotDatabase</text><line style="stroke:#000000;stroke-width:1.0;" x1="66.5" x2="302.5" y1="533.5938" y2="533.5938"/><ellipse cx="76.5" cy="547.2422" fill="#FFFFFF" rx="3" ry="3" style="stroke:#000000;stroke-width:1.0;"/><text fill="#000000" font-family="Verdana" font-size="14" lengthAdjust="spacing" textLength="207" x="83.5" y="550.5889">AppContainerImpl(Context):</text></g><!--class CanvasScreen--><g id="elem_CanvasScreen"><rect codeLine="13" fill="#FFFFFF" height="44" id="CanvasScreen" rx="2.5" ry="2.5" style="stroke:#000000;stroke-width:1.0;" width="128" x="1823.5" y="869"/><ellipse cx="1836.5" cy="883" fill="#FFFFFF" rx="9" ry="9" style="stroke:#000000;stroke-width:1.0;"/><path d="M1838.8438,878.6719 C1837.9063,878.2344 1837.3125,878.0938 1836.4375,878.0938 C1833.8125,878.0938 1831.8125,880.1719 1831.8125,882.8906 L1831.8125,884.0156 C1831.8125,886.5938 1833.9219,888.4844 1836.8125,888.4844 C1838.0313,888.4844 1839.1875,888.1875 1839.9375,887.6406 C1840.5156,887.2344 1840.8438,886.7813 1840.8438,886.3906 C1840.8438,885.9375 1840.4531,885.5469 1839.9844,885.5469 C1839.7656,885.5469 1839.5625,885.625 1839.375,885.8125 C1838.9219,886.2969 1838.9219,886.2969 1838.7344,886.3906 C1838.3125,886.6563 1837.625,886.7813 1836.8594,886.7813 C1834.8125,886.7813 1833.5156,885.6875 1833.5156,883.9844 L1833.5156,882.8906 C1833.5156,881.1094 1834.7656,879.7969 1836.5,879.7969 C1837.0781,879.7969 1837.6875,879.9531 1838.1563,880.2031 C1838.6406,880.4844 1838.8125,880.7031 1838.9063,881.1094 C1838.9688,881.5156 1839,881.6406 1839.1406,881.7656 C1839.2813,881.9063 1839.5156,882.0156 1839.7344,882.0156 C1840,882.0156 1840.2656,881.875 1840.4375,881.6563 C1840.5469,881.5 1840.5781,881.3125 1840.5781,880.8906 L1840.5781,879.4688 C1840.5781,879.0313 1840.5625,878.9063 1840.4688,878.75 C1840.3125,878.4844 1840.0313,878.3438 1839.7344,878.3438 C1839.4375,878.3438 1839.2344,878.4375 1839.0156,878.75 L1838.8438,878.6719 Z " fill="#000000"/><text fill="#000000" font-family="Verdana" font-size="14" lengthAdjust="spacing" textLength="100" x="1848.5" y="887.8467">CanvasScreen</text><line style="stroke:#000000;stroke-width:1.0;" x1="1824.5" x2="1950.5" y1="897" y2="897"/><line style="stroke:#000000;stroke-width:1.0;" x1="1824.5" x2="1950.5" y1="905" y2="905"/></g><!--class Companion--><g id="elem_Companion"><rect codeLine="14" fill="#FFFFFF" height="60.2969" id="Companion" rx="2.5" ry="2.5" style="stroke:#000000;stroke-width:1.0;" width="314" x="602.5" y="626.5"/><ellipse cx="714.75" cy="640.5" fill="#FFFFFF" rx="9" ry="9" style="stroke:#000000;stroke-width:1.0;"/><path d="M717.0938,636.1719 C716.1563,635.7344 715.5625,635.5938 714.6875,635.5938 C712.0625,635.5938 710.0625,637.6719 710.0625,640.3906 L710.0625,641.5156 C710.0625,644.0938 712.1719,645.9844 715.0625,645.9844 C716.2813,645.9844 717.4375,645.6875 718.1875,645.1406 C718.7656,644.7344 719.0938,644.2813 719.0938,643.8906 C719.0938,643.4375 718.7031,643.0469 718.2344,643.0469 C718.0156,643.0469 717.8125,643.125 717.625,643.3125 C717.1719,643.7969 717.1719,643.7969 716.9844,643.8906 C716.5625,644.1563 715.875,644.2813 715.1094,644.2813 C713.0625,644.2813 711.7656,643.1875 711.7656,641.4844 L711.7656,640.3906 C711.7656,638.6094 713.0156,637.2969 714.75,637.2969 C715.3281,637.2969 715.9375,637.4531 716.4063,637.7031 C716.8906,637.9844 717.0625,638.2031 717.1563,638.6094 C717.2188,639.0156 717.25,639.1406 717.3906,639.2656 C717.5313,639.4063 717.7656,639.5156 717.9844,639.5156 C718.25,639.5156 718.5156,639.375 718.6875,639.1563 C718.7969,639 718.8281,638.8125 718.8281,638.3906 L718.8281,636.9688 C718.8281,636.5313 718.8125,636.4063 718.7188,636.25 C718.5625,635.9844 718.2813,635.8438 717.9844,635.8438 C717.6875,635.8438 717.4844,635.9375 717.2656,636.25 L717.0938,636.1719 Z " fill="#000000"/><text fill="#000000" font-family="Verdana" font-size="14" lengthAdjust="spacing" textLength="82" x="732.25" y="645.3467">Companion</text><line style="stroke:#000000;stroke-width:1.0;" x1="603.5" x2="915.5" y1="654.5" y2="654.5"/><line style="stroke:#000000;stroke-width:1.0;" x1="603.5" x2="915.5" y1="662.5" y2="662.5"/><ellipse cx="613.5" cy="676.1484" fill="#FFFFFF" rx="3" ry="3" style="stroke:#000000;stroke-width:1.0;"/><text fill="#000000" font-family="Verdana" font-size="14" lengthAdjust="spacing" textLength="290" x="620.5" y="679.4951">provideFactory(PlotRepository): Factory</text></g><!--class EtherealPlotAppKt--><g id="elem_EtherealPlotAppKt"><rect codeLine="17" fill="#FFFFFF" height="60.2969" id="EtherealPlotAppKt" rx="2.5" ry="2.5" style="stroke:#000000;stroke-width:1.0;" width="293" x="410" y="481.5"/><ellipse cx="484.25" cy="495.5" fill="#FFFFFF" rx="9" ry="9" style="stroke:#000000;stroke-width:1.0;"/><path d="M486.5938,491.1719 C485.6563,490.7344 485.0625,490.5938 484.1875,490.5938 C481.5625,490.5938 479.5625,492.6719 479.5625,495.3906 L479.5625,496.5156 C479.5625,499.0938 481.6719,500.9844 484.5625,500.9844 C485.7813,500.9844 486.9375,500.6875 487.6875,500.1406 C488.2656,499.7344 488.5938,499.2813 488.5938,498.8906 C488.5938,498.4375 488.2031,498.0469 487.7344,498.0469 C487.5156,498.0469 487.3125,498.125 487.125,498.3125 C486.6719,498.7969 486.6719,498.7969 486.4844,498.8906 C486.0625,499.1563 485.375,499.2813 484.6094,499.2813 C482.5625,499.2813 481.2656,498.1875 481.2656,496.4844 L481.2656,495.3906 C481.2656,493.6094 482.5156,492.2969 484.25,492.2969 C484.8281,492.2969 485.4375,492.4531 485.9063,492.7031 C486.3906,492.9844 486.5625,493.2031 486.6563,493.6094 C486.7188,494.0156 486.75,494.1406 486.8906,494.2656 C487.0313,494.4063 487.2656,494.5156 487.4844,494.5156 C487.75,494.5156 488.0156,494.375 488.1875,494.1563 C488.2969,494 488.3281,493.8125 488.3281,493.3906 L488.3281,491.9688 C488.3281,491.5313 488.3125,491.4063 488.2188,491.25 C488.0625,490.9844 487.7813,490.8438 487.4844,490.8438 C487.1875,490.8438 486.9844,490.9375 486.7656,491.25 L486.5938,491.1719 Z " fill="#000000"/><text fill="#000000" font-family="Verdana" font-size="14" lengthAdjust="spacing" textLength="137" x="501.75" y="500.3467">EtherealPlotAppKt</text><line style="stroke:#000000;stroke-width:1.0;" x1="411" x2="702" y1="509.5" y2="509.5"/><line style="stroke:#000000;stroke-width:1.0;" x1="411" x2="702" y1="517.5" y2="517.5"/><ellipse cx="421" cy="531.1484" fill="#FFFFFF" rx="3" ry="3" style="stroke:#000000;stroke-width:1.0;"/><text fill="#000000" font-family="Verdana" font-size="14" lengthAdjust="spacing" textLength="269" x="428" y="534.4951">EtherealPlotApp(AppContainer): Unit</text></g><!--class EtherealPlotApplication--><g id="elem_EtherealPlotApplication"><rect codeLine="20" fill="#FFFFFF" height="92.8906" id="EtherealPlotApplication" rx="2.5" ry="2.5" style="stroke:#000000;stroke-width:1.0;" width="212" x="164.5" y="312"/><ellipse cx="182.45" cy="326" fill="#FFFFFF" rx="9" ry="9" style="stroke:#000000;stroke-width:1.0;"/><path d="M184.7938,321.6719 C183.8563,321.2344 183.2625,321.0938 182.3875,321.0938 C179.7625,321.0938 177.7625,323.1719 177.7625,325.8906 L177.7625,327.0156 C177.7625,329.5938 179.8719,331.4844 182.7625,331.4844 C183.9813,331.4844 185.1375,331.1875 185.8875,330.6406 C186.4656,330.2344 186.7938,329.7813 186.7938,329.3906 C186.7938,328.9375 186.4031,328.5469 185.9344,328.5469 C185.7156,328.5469 185.5125,328.625 185.325,328.8125 C184.8719,329.2969 184.8719,329.2969 184.6844,329.3906 C184.2625,329.6563 183.575,329.7813 182.8094,329.7813 C180.7625,329.7813 179.4656,328.6875 179.4656,326.9844 L179.4656,325.8906 C179.4656,324.1094 180.7156,322.7969 182.45,322.7969 C183.0281,322.7969 183.6375,322.9531 184.1063,323.2031 C184.5906,323.4844 184.7625,323.7031 184.8563,324.1094 C184.9188,324.5156 184.95,324.6406 185.0906,324.7656 C185.2313,324.9063 185.4656,325.0156 185.6844,325.0156 C185.95,325.0156 186.2156,324.875 186.3875,324.6563 C186.4969,324.5 186.5281,324.3125 186.5281,323.8906 L186.5281,322.4688 C186.5281,322.0313 186.5125,321.9063 186.4188,321.75 C186.2625,321.4844 185.9813,321.3438 185.6844,321.3438 C185.3875,321.3438 185.1844,321.4375 184.9656,321.75 L184.7938,321.6719 Z " fill="#000000"/><text fill="#000000" font-family="Verdana" font-size="14" lengthAdjust="spacing" textLength="173" x="195.55" y="330.8467">EtherealPlotApplication</text><line style="stroke:#000000;stroke-width:1.0;" x1="165.5" x2="375.5" y1="340" y2="340"/><text fill="#000000" font-family="Verdana" font-size="14" lengthAdjust="spacing" textLength="179" x="170.5" y="356.9951">container: AppContainer</text><line style="stroke:#000000;stroke-width:1.0;" x1="165.5" x2="375.5" y1="364.2969" y2="364.2969"/><ellipse cx="175.5" cy="377.9453" fill="#FFFFFF" rx="3" ry="3" style="stroke:#000000;stroke-width:1.0;"/><text fill="#000000" font-family="Verdana" font-size="14" lengthAdjust="spacing" textLength="188" x="182.5" y="381.292">EtherealPlotApplication():</text><ellipse cx="175.5" cy="394.2422" fill="#FFFFFF" rx="3" ry="3" style="stroke:#000000;stroke-width:1.0;"/><text fill="#000000" font-family="Verdana" font-size="14" lengthAdjust="spacing" textLength="115" x="182.5" y="397.5889">onCreate(): Unit</text></g><!--class EtherealPlotDatabase--><g id="elem_EtherealPlotDatabase"><rect codeLine="25" fill="#FFFFFF" height="76.5938" id="EtherealPlotDatabase" rx="2.5" ry="2.5" style="stroke:#000000;stroke-width:1.0;" width="197" x="12" y="618"/><ellipse cx="29.95" cy="632" fill="#FFFFFF" rx="9" ry="9" style="stroke:#000000;stroke-width:1.0;"/><path d="M32.2938,627.6719 C31.3563,627.2344 30.7625,627.0938 29.8875,627.0938 C27.2625,627.0938 25.2625,629.1719 25.2625,631.8906 L25.2625,633.0156 C25.2625,635.5938 27.3719,637.4844 30.2625,637.4844 C31.4813,637.4844 32.6375,637.1875 33.3875,636.6406 C33.9656,636.2344 34.2938,635.7813 34.2938,635.3906 C34.2938,634.9375 33.9031,634.5469 33.4344,634.5469 C33.2156,634.5469 33.0125,634.625 32.825,634.8125 C32.3719,635.2969 32.3719,635.2969 32.1844,635.3906 C31.7625,635.6563 31.075,635.7813 30.3094,635.7813 C28.2625,635.7813 26.9656,634.6875 26.9656,632.9844 L26.9656,631.8906 C26.9656,630.1094 28.2156,628.7969 29.95,628.7969 C30.5281,628.7969 31.1375,628.9531 31.6063,629.2031 C32.0906,629.4844 32.2625,629.7031 32.3563,630.1094 C32.4188,630.5156 32.45,630.6406 32.5906,630.7656 C32.7313,630.9063 32.9656,631.0156 33.1844,631.0156 C33.45,631.0156 33.7156,630.875 33.8875,630.6563 C33.9969,630.5 34.0281,630.3125 34.0281,629.8906 L34.0281,628.4688 C34.0281,628.0313 34.0125,627.9063 33.9188,627.75 C33.7625,627.4844 33.4813,627.3438 33.1844,627.3438 C32.8875,627.3438 32.6844,627.4375 32.4656,627.75 L32.2938,627.6719 Z " fill="#000000"/><text fill="#000000" font-family="Verdana" font-size="14" lengthAdjust="spacing" textLength="158" x="43.05" y="636.8467">EtherealPlotDatabase</text><line style="stroke:#000000;stroke-width:1.0;" x1="13" x2="208" y1="646" y2="646"/><text fill="#000000" font-family="Verdana" font-size="14" lengthAdjust="spacing" textLength="92" x="18" y="662.9951">dao: PlotDao</text><line style="stroke:#000000;stroke-width:1.0;" x1="13" x2="208" y1="670.2969" y2="670.2969"/><ellipse cx="23" cy="683.9453" fill="#FFFFFF" rx="3" ry="3" style="stroke:#000000;stroke-width:1.0;"/><text fill="#000000" font-family="Verdana" font-size="14" lengthAdjust="spacing" textLength="173" x="30" y="687.292">EtherealPlotDatabase():</text></g><!--class ExtKt--><g id="elem_ExtKt"><rect codeLine="29" fill="#FFFFFF" height="109.1875" id="ExtKt" rx="2.5" ry="2.5" style="stroke:#000000;stroke-width:1.0;" width="493" x="1033" y="836.5"/><ellipse cx="1255.25" cy="850.5" fill="#FFFFFF" rx="9" ry="9" style="stroke:#000000;stroke-width:1.0;"/><path d="M1257.5938,846.1719 C1256.6563,845.7344 1256.0625,845.5938 1255.1875,845.5938 C1252.5625,845.5938 1250.5625,847.6719 1250.5625,850.3906 L1250.5625,851.5156 C1250.5625,854.0938 1252.6719,855.9844 1255.5625,855.9844 C1256.7813,855.9844 1257.9375,855.6875 1258.6875,855.1406 C1259.2656,854.7344 1259.5938,854.2813 1259.5938,853.8906 C1259.5938,853.4375 1259.2031,853.0469 1258.7344,853.0469 C1258.5156,853.0469 1258.3125,853.125 1258.125,853.3125 C1257.6719,853.7969 1257.6719,853.7969 1257.4844,853.8906 C1257.0625,854.1563 1256.375,854.2813 1255.6094,854.2813 C1253.5625,854.2813 1252.2656,853.1875 1252.2656,851.4844 L1252.2656,850.3906 C1252.2656,848.6094 1253.5156,847.2969 1255.25,847.2969 C1255.8281,847.2969 1256.4375,847.4531 1256.9063,847.7031 C1257.3906,847.9844 1257.5625,848.2031 1257.6563,848.6094 C1257.7188,849.0156 1257.75,849.1406 1257.8906,849.2656 C1258.0313,849.4063 1258.2656,849.5156 1258.4844,849.5156 C1258.75,849.5156 1259.0156,849.375 1259.1875,849.1563 C1259.2969,849 1259.3281,848.8125 1259.3281,848.3906 L1259.3281,846.9688 C1259.3281,846.5313 1259.3125,846.4063 1259.2188,846.25 C1259.0625,845.9844 1258.7813,845.8438 1258.4844,845.8438 C1258.1875,845.8438 1257.9844,845.9375 1257.7656,846.25 L1257.5938,846.1719 Z " fill="#000000"/><text fill="#000000" font-family="Verdana" font-size="14" lengthAdjust="spacing" textLength="41" x="1272.75" y="855.3467">ExtKt</text><line style="stroke:#000000;stroke-width:1.0;" x1="1034" x2="1525" y1="864.5" y2="864.5"/><line style="stroke:#000000;stroke-width:1.0;" x1="1034" x2="1525" y1="872.5" y2="872.5"/><ellipse cx="1044" cy="886.1484" fill="#FFFFFF" rx="3" ry="3" style="stroke:#000000;stroke-width:1.0;"/><text fill="#000000" font-family="Verdana" font-size="14" lengthAdjust="spacing" textLength="191" x="1051" y="889.4951">random(Companion): Long</text><ellipse cx="1044" cy="902.4453" fill="#FFFFFF" rx="3" ry="3" style="stroke:#000000;stroke-width:1.0;"/><text fill="#000000" font-family="Verdana" font-size="14" lengthAdjust="spacing" textLength="291" x="1051" y="905.792">withColor(Paint, Int, (Paint) -&gt; Unit): Unit</text><ellipse cx="1044" cy="918.7422" fill="#FFFFFF" rx="3" ry="3" style="stroke:#000000;stroke-width:1.0;"/><text fill="#000000" font-family="Verdana" font-size="14" lengthAdjust="spacing" textLength="469" x="1051" y="922.0889">drawTextInRightDirection(Canvas, String, Float, Float, Paint): Unit</text><ellipse cx="1044" cy="935.0391" fill="#FFFFFF" rx="3" ry="3" style="stroke:#000000;stroke-width:1.0;"/><text fill="#000000" font-family="Verdana" font-size="14" lengthAdjust="spacing" textLength="228" x="1051" y="938.3857">toPlotUIState(Plot): PlotUIState</text></g><!--class MainActivity--><g id="elem_MainActivity"><rect codeLine="35" fill="#FFFFFF" height="76.5938" id="MainActivity" rx="2.5" ry="2.5" style="stroke:#000000;stroke-width:1.0;" width="195" x="173" y="102"/><ellipse cx="222.25" cy="116" fill="#FFFFFF" rx="9" ry="9" style="stroke:#000000;stroke-width:1.0;"/><path d="M224.5938,111.6719 C223.6563,111.2344 223.0625,111.0938 222.1875,111.0938 C219.5625,111.0938 217.5625,113.1719 217.5625,115.8906 L217.5625,117.0156 C217.5625,119.5938 219.6719,121.4844 222.5625,121.4844 C223.7813,121.4844 224.9375,121.1875 225.6875,120.6406 C226.2656,120.2344 226.5938,119.7813 226.5938,119.3906 C226.5938,118.9375 226.2031,118.5469 225.7344,118.5469 C225.5156,118.5469 225.3125,118.625 225.125,118.8125 C224.6719,119.2969 224.6719,119.2969 224.4844,119.3906 C224.0625,119.6563 223.375,119.7813 222.6094,119.7813 C220.5625,119.7813 219.2656,118.6875 219.2656,116.9844 L219.2656,115.8906 C219.2656,114.1094 220.5156,112.7969 222.25,112.7969 C222.8281,112.7969 223.4375,112.9531 223.9063,113.2031 C224.3906,113.4844 224.5625,113.7031 224.6563,114.1094 C224.7188,114.5156 224.75,114.6406 224.8906,114.7656 C225.0313,114.9063 225.2656,115.0156 225.4844,115.0156 C225.75,115.0156 226.0156,114.875 226.1875,114.6563 C226.2969,114.5 226.3281,114.3125 226.3281,113.8906 L226.3281,112.4688 C226.3281,112.0313 226.3125,111.9063 226.2188,111.75 C226.0625,111.4844 225.7813,111.3438 225.4844,111.3438 C225.1875,111.3438 224.9844,111.4375 224.7656,111.75 L224.5938,111.6719 Z " fill="#000000"/><text fill="#000000" font-family="Verdana" font-size="14" lengthAdjust="spacing" textLength="89" x="239.75" y="120.8467">MainActivity</text><line style="stroke:#000000;stroke-width:1.0;" x1="174" x2="367" y1="130" y2="130"/><line style="stroke:#000000;stroke-width:1.0;" x1="174" x2="367" y1="138" y2="138"/><ellipse cx="184" cy="151.6484" fill="#FFFFFF" rx="3" ry="3" style="stroke:#000000;stroke-width:1.0;"/><text fill="#000000" font-family="Verdana" font-size="14" lengthAdjust="spacing" textLength="104" x="191" y="154.9951">MainActivity():</text><polygon fill="#FFFFFF" points="184,162.9453,188,166.9453,184,170.9453,180,166.9453" style="stroke:#000000;stroke-width:1.0;"/><text fill="#000000" font-family="Verdana" font-size="14" lengthAdjust="spacing" textLength="171" x="191" y="171.292">onCreate(Bundle?): Unit</text></g><!--class MainScreen--><g id="elem_MainScreen"><rect codeLine="39" fill="#FFFFFF" height="44" id="MainScreen" rx="2.5" ry="2.5" style="stroke:#000000;stroke-width:1.0;" width="111" x="1987" y="869"/><ellipse cx="2000" cy="883" fill="#FFFFFF" rx="9" ry="9" style="stroke:#000000;stroke-width:1.0;"/><path d="M2002.3438,878.6719 C2001.4063,878.2344 2000.8125,878.0938 1999.9375,878.0938 C1997.3125,878.0938 1995.3125,880.1719 1995.3125,882.8906 L1995.3125,884.0156 C1995.3125,886.5938 1997.4219,888.4844 2000.3125,888.4844 C2001.5313,888.4844 2002.6875,888.1875 2003.4375,887.6406 C2004.0156,887.2344 2004.3438,886.7813 2004.3438,886.3906 C2004.3438,885.9375 2003.9531,885.5469 2003.4844,885.5469 C2003.2656,885.5469 2003.0625,885.625 2002.875,885.8125 C2002.4219,886.2969 2002.4219,886.2969 2002.2344,886.3906 C2001.8125,886.6563 2001.125,886.7813 2000.3594,886.7813 C1998.3125,886.7813 1997.0156,885.6875 1997.0156,883.9844 L1997.0156,882.8906 C1997.0156,881.1094 1998.2656,879.7969 2000,879.7969 C2000.5781,879.7969 2001.1875,879.9531 2001.6563,880.2031 C2002.1406,880.4844 2002.3125,880.7031 2002.4063,881.1094 C2002.4688,881.5156 2002.5,881.6406 2002.6406,881.7656 C2002.7813,881.9063 2003.0156,882.0156 2003.2344,882.0156 C2003.5,882.0156 2003.7656,881.875 2003.9375,881.6563 C2004.0469,881.5 2004.0781,881.3125 2004.0781,880.8906 L2004.0781,879.4688 C2004.0781,879.0313 2004.0625,878.9063 2003.9688,878.75 C2003.8125,878.4844 2003.5313,878.3438 2003.2344,878.3438 C2002.9375,878.3438 2002.7344,878.4375 2002.5156,878.75 L2002.3438,878.6719 Z " fill="#000000"/><text fill="#000000" font-family="Verdana" font-size="14" lengthAdjust="spacing" textLength="83" x="2012" y="887.8467">MainScreen</text><line style="stroke:#000000;stroke-width:1.0;" x1="1988" x2="2097" y1="897" y2="897"/><line style="stroke:#000000;stroke-width:1.0;" x1="1988" x2="2097" y1="905" y2="905"/></g><!--class MathParser--><g id="elem_MathParser"><rect codeLine="40" fill="#FFFFFF" height="223.2656" id="MathParser" rx="2.5" ry="2.5" style="stroke:#000000;stroke-width:1.0;" width="430" x="403.5" y="29"/><ellipse cx="574.25" cy="43" fill="#FFFFFF" rx="9" ry="9" style="stroke:#000000;stroke-width:1.0;"/><path d="M576.5938,38.6719 C575.6563,38.2344 575.0625,38.0938 574.1875,38.0938 C571.5625,38.0938 569.5625,40.1719 569.5625,42.8906 L569.5625,44.0156 C569.5625,46.5938 571.6719,48.4844 574.5625,48.4844 C575.7813,48.4844 576.9375,48.1875 577.6875,47.6406 C578.2656,47.2344 578.5938,46.7813 578.5938,46.3906 C578.5938,45.9375 578.2031,45.5469 577.7344,45.5469 C577.5156,45.5469 577.3125,45.625 577.125,45.8125 C576.6719,46.2969 576.6719,46.2969 576.4844,46.3906 C576.0625,46.6563 575.375,46.7813 574.6094,46.7813 C572.5625,46.7813 571.2656,45.6875 571.2656,43.9844 L571.2656,42.8906 C571.2656,41.1094 572.5156,39.7969 574.25,39.7969 C574.8281,39.7969 575.4375,39.9531 575.9063,40.2031 C576.3906,40.4844 576.5625,40.7031 576.6563,41.1094 C576.7188,41.5156 576.75,41.6406 576.8906,41.7656 C577.0313,41.9063 577.2656,42.0156 577.4844,42.0156 C577.75,42.0156 578.0156,41.875 578.1875,41.6563 C578.2969,41.5 578.3281,41.3125 578.3281,40.8906 L578.3281,39.4688 C578.3281,39.0313 578.3125,38.9063 578.2188,38.75 C578.0625,38.4844 577.7813,38.3438 577.4844,38.3438 C577.1875,38.3438 576.9844,38.4375 576.7656,38.75 L576.5938,38.6719 Z " fill="#000000"/><text fill="#000000" font-family="Verdana" font-size="14" lengthAdjust="spacing" textLength="81" x="591.75" y="47.8467">MathParser</text><line style="stroke:#000000;stroke-width:1.0;" x1="404.5" x2="832.5" y1="57" y2="57"/><text fill="#000000" font-family="Verdana" font-size="14" lengthAdjust="spacing" textLength="126" x="409.5" y="73.9951">rpn: List&lt;String&gt;</text><line style="stroke:#000000;stroke-width:1.0;" x1="404.5" x2="832.5" y1="81.2969" y2="81.2969"/><ellipse cx="414.5" cy="94.9453" fill="#FFFFFF" rx="3" ry="3" style="stroke:#000000;stroke-width:1.0;"/><text fill="#000000" font-family="Verdana" font-size="14" lengthAdjust="spacing" textLength="140" x="421.5" y="98.292">MathParser(String):</text><ellipse cx="414.5" cy="111.2422" fill="#FFFFFF" rx="3" ry="3" style="stroke:#000000;stroke-width:1.0;"/><text fill="#000000" font-family="Verdana" font-size="14" lengthAdjust="spacing" textLength="285" x="421.5" y="114.5889">setVariable(String, Double): MathParser</text><rect fill="#FFFFFF" height="6" style="stroke:#000000;stroke-width:1.0;" width="6" x="411.5" y="124.5391"/><text fill="#000000" font-family="Verdana" font-size="14" lengthAdjust="spacing" textLength="106" x="421.5" y="130.8857">_eval(): Double</text><ellipse cx="414.5" cy="143.8359" fill="#FFFFFF" rx="3" ry="3" style="stroke:#000000;stroke-width:1.0;"/><text fill="#000000" font-family="Verdana" font-size="14" lengthAdjust="spacing" textLength="99" x="421.5" y="147.1826">eval(): Double</text><rect fill="#FFFFFF" height="6" style="stroke:#000000;stroke-width:1.0;" width="6" x="411.5" y="157.1328"/><text fill="#000000" font-family="Verdana" font-size="14" lengthAdjust="spacing" textLength="406" x="421.5" y="163.4795">handleBinaryOp(List&lt;String&gt;, String, List&lt;String&gt;): Unit</text><ellipse cx="414.5" cy="176.4297" fill="#FFFFFF" rx="3" ry="3" style="stroke:#000000;stroke-width:1.0;"/><text fill="#000000" font-family="Verdana" font-size="14" lengthAdjust="spacing" textLength="286" x="421.5" y="179.7764">evalOrNull((Double) -&gt; Double): Double?</text><rect fill="#FFFFFF" height="6" style="stroke:#000000;stroke-width:1.0;" width="6" x="411.5" y="189.7266"/><text fill="#000000" font-family="Verdana" font-size="14" lengthAdjust="spacing" textLength="397" x="421.5" y="196.0732">handleClosingBracket(List&lt;String&gt;, List&lt;String&gt;): Unit</text><rect fill="#FFFFFF" height="6" style="stroke:#000000;stroke-width:1.0;" width="6" x="411.5" y="206.0234"/><text fill="#000000" font-family="Verdana" font-size="14" lengthAdjust="spacing" textLength="219" x="421.5" y="212.3701">tokenize(String): List&lt;String&gt;</text><rect fill="#FFFFFF" height="6" style="stroke:#000000;stroke-width:1.0;" width="6" x="411.5" y="222.3203"/><text fill="#000000" font-family="Verdana" font-size="14" lengthAdjust="spacing" textLength="200" x="421.5" y="228.667">toRPN(String): List&lt;String&gt;</text><rect fill="#FFFFFF" height="6" style="stroke:#000000;stroke-width:1.0;" width="6" x="411.5" y="238.6172"/><text fill="#000000" font-family="Verdana" font-size="14" lengthAdjust="spacing" textLength="265" x="421.5" y="244.9639">toRpnOrEmpty(String): List&lt;String&gt;</text></g><!--class MockPlotsKt--><g id="elem_MockPlotsKt"><rect codeLine="53" fill="#FFFFFF" height="60.2969" id="MockPlotsKt" rx="2.5" ry="2.5" style="stroke:#000000;stroke-width:1.0;" width="227" x="1561" y="861"/><ellipse cx="1625.25" cy="875" fill="#FFFFFF" rx="9" ry="9" style="stroke:#000000;stroke-width:1.0;"/><path d="M1627.5938,870.6719 C1626.6563,870.2344 1626.0625,870.0938 1625.1875,870.0938 C1622.5625,870.0938 1620.5625,872.1719 1620.5625,874.8906 L1620.5625,876.0156 C1620.5625,878.5938 1622.6719,880.4844 1625.5625,880.4844 C1626.7813,880.4844 1627.9375,880.1875 1628.6875,879.6406 C1629.2656,879.2344 1629.5938,878.7813 1629.5938,878.3906 C1629.5938,877.9375 1629.2031,877.5469 1628.7344,877.5469 C1628.5156,877.5469 1628.3125,877.625 1628.125,877.8125 C1627.6719,878.2969 1627.6719,878.2969 1627.4844,878.3906 C1627.0625,878.6563 1626.375,878.7813 1625.6094,878.7813 C1623.5625,878.7813 1622.2656,877.6875 1622.2656,875.9844 L1622.2656,874.8906 C1622.2656,873.1094 1623.5156,871.7969 1625.25,871.7969 C1625.8281,871.7969 1626.4375,871.9531 1626.9063,872.2031 C1627.3906,872.4844 1627.5625,872.7031 1627.6563,873.1094 C1627.7188,873.5156 1627.75,873.6406 1627.8906,873.7656 C1628.0313,873.9063 1628.2656,874.0156 1628.4844,874.0156 C1628.75,874.0156 1629.0156,873.875 1629.1875,873.6563 C1629.2969,873.5 1629.3281,873.3125 1629.3281,872.8906 L1629.3281,871.4688 C1629.3281,871.0313 1629.3125,870.9063 1629.2188,870.75 C1629.0625,870.4844 1628.7813,870.3438 1628.4844,870.3438 C1628.1875,870.3438 1627.9844,870.4375 1627.7656,870.75 L1627.5938,870.6719 Z " fill="#000000"/><text fill="#000000" font-family="Verdana" font-size="14" lengthAdjust="spacing" textLength="91" x="1642.75" y="879.8467">MockPlotsKt</text><line style="stroke:#000000;stroke-width:1.0;" x1="1562" x2="1787" y1="889" y2="889"/><text fill="#000000" font-family="Verdana" font-size="14" lengthAdjust="spacing" textLength="215" x="1567" y="905.9951">mockPlots: List&lt;PlotUIState&gt;</text><line style="stroke:#000000;stroke-width:1.0;" x1="1562" x2="1787" y1="913.2969" y2="913.2969"/></g><!--class NavigationGraphKt--><g id="elem_NavigationGraphKt"><rect codeLine="56" fill="#FFFFFF" height="60.2969" id="NavigationGraphKt" rx="2.5" ry="2.5" style="stroke:#000000;stroke-width:1.0;" width="248" x="1841.5" y="626.5"/><ellipse cx="1893.25" cy="640.5" fill="#FFFFFF" rx="9" ry="9" style="stroke:#000000;stroke-width:1.0;"/><path d="M1895.5938,636.1719 C1894.6563,635.7344 1894.0625,635.5938 1893.1875,635.5938 C1890.5625,635.5938 1888.5625,637.6719 1888.5625,640.3906 L1888.5625,641.5156 C1888.5625,644.0938 1890.6719,645.9844 1893.5625,645.9844 C1894.7813,645.9844 1895.9375,645.6875 1896.6875,645.1406 C1897.2656,644.7344 1897.5938,644.2813 1897.5938,643.8906 C1897.5938,643.4375 1897.2031,643.0469 1896.7344,643.0469 C1896.5156,643.0469 1896.3125,643.125 1896.125,643.3125 C1895.6719,643.7969 1895.6719,643.7969 1895.4844,643.8906 C1895.0625,644.1563 1894.375,644.2813 1893.6094,644.2813 C1891.5625,644.2813 1890.2656,643.1875 1890.2656,641.4844 L1890.2656,640.3906 C1890.2656,638.6094 1891.5156,637.2969 1893.25,637.2969 C1893.8281,637.2969 1894.4375,637.4531 1894.9063,637.7031 C1895.3906,637.9844 1895.5625,638.2031 1895.6563,638.6094 C1895.7188,639.0156 1895.75,639.1406 1895.8906,639.2656 C1896.0313,639.4063 1896.2656,639.5156 1896.4844,639.5156 C1896.75,639.5156 1897.0156,639.375 1897.1875,639.1563 C1897.2969,639 1897.3281,638.8125 1897.3281,638.3906 L1897.3281,636.9688 C1897.3281,636.5313 1897.3125,636.4063 1897.2188,636.25 C1897.0625,635.9844 1896.7813,635.8438 1896.4844,635.8438 C1896.1875,635.8438 1895.9844,635.9375 1895.7656,636.25 L1895.5938,636.1719 Z " fill="#000000"/><text fill="#000000" font-family="Verdana" font-size="14" lengthAdjust="spacing" textLength="137" x="1910.75" y="645.3467">NavigationGraphKt</text><line style="stroke:#000000;stroke-width:1.0;" x1="1842.5" x2="2088.5" y1="654.5" y2="654.5"/><line style="stroke:#000000;stroke-width:1.0;" x1="1842.5" x2="2088.5" y1="662.5" y2="662.5"/><ellipse cx="1852.5" cy="676.1484" fill="#FFFFFF" rx="3" ry="3" style="stroke:#000000;stroke-width:1.0;"/><text fill="#000000" font-family="Verdana" font-size="14" lengthAdjust="spacing" textLength="224" x="1859.5" y="679.4951">NavGraph(PlotViewModel): Unit</text></g><!--class PlotUIState--><g id="elem_PlotUIState"><rect codeLine="59" fill="#FFFFFF" height="304.75" id="PlotUIState" rx="2.5" ry="2.5" style="stroke:#000000;stroke-width:1.0;" width="489" x="1232" y="1087"/><ellipse cx="1431.75" cy="1101" fill="#FFFFFF" rx="9" ry="9" style="stroke:#000000;stroke-width:1.0;"/><path d="M1434.0938,1096.6719 C1433.1563,1096.2344 1432.5625,1096.0938 1431.6875,1096.0938 C1429.0625,1096.0938 1427.0625,1098.1719 1427.0625,1100.8906 L1427.0625,1102.0156 C1427.0625,1104.5938 1429.1719,1106.4844 1432.0625,1106.4844 C1433.2813,1106.4844 1434.4375,1106.1875 1435.1875,1105.6406 C1435.7656,1105.2344 1436.0938,1104.7813 1436.0938,1104.3906 C1436.0938,1103.9375 1435.7031,1103.5469 1435.2344,1103.5469 C1435.0156,1103.5469 1434.8125,1103.625 1434.625,1103.8125 C1434.1719,1104.2969 1434.1719,1104.2969 1433.9844,1104.3906 C1433.5625,1104.6563 1432.875,1104.7813 1432.1094,1104.7813 C1430.0625,1104.7813 1428.7656,1103.6875 1428.7656,1101.9844 L1428.7656,1100.8906 C1428.7656,1099.1094 1430.0156,1097.7969 1431.75,1097.7969 C1432.3281,1097.7969 1432.9375,1097.9531 1433.4063,1098.2031 C1433.8906,1098.4844 1434.0625,1098.7031 1434.1563,1099.1094 C1434.2188,1099.5156 1434.25,1099.6406 1434.3906,1099.7656 C1434.5313,1099.9063 1434.7656,1100.0156 1434.9844,1100.0156 C1435.25,1100.0156 1435.5156,1099.875 1435.6875,1099.6563 C1435.7969,1099.5 1435.8281,1099.3125 1435.8281,1098.8906 L1435.8281,1097.4688 C1435.8281,1097.0313 1435.8125,1096.9063 1435.7188,1096.75 C1435.5625,1096.4844 1435.2813,1096.3438 1434.9844,1096.3438 C1434.6875,1096.3438 1434.4844,1096.4375 1434.2656,1096.75 L1434.0938,1096.6719 Z " fill="#000000"/><text fill="#000000" font-family="Verdana" font-size="14" lengthAdjust="spacing" textLength="82" x="1449.25" y="1105.8467">PlotUIState</text><line style="stroke:#000000;stroke-width:1.0;" x1="1233" x2="1720" y1="1115" y2="1115"/><text fill="#000000" font-family="Verdana" font-size="14" lengthAdjust="spacing" textLength="80" x="1238" y="1131.9951">color: Long</text><text fill="#000000" font-family="Verdana" font-size="14" lengthAdjust="spacing" textLength="113" x="1238" y="1148.292">function: String</text><text fill="#000000" font-family="Verdana" font-size="14" lengthAdjust="spacing" textLength="57" x="1238" y="1164.5889">id: Long</text><text fill="#000000" font-family="Verdana" font-size="14" lengthAdjust="spacing" textLength="100" x="1238" y="1180.8857">valid: Boolean</text><text fill="#000000" font-family="Verdana" font-size="14" lengthAdjust="spacing" textLength="113" x="1238" y="1197.1826">visible: Boolean</text><line style="stroke:#000000;stroke-width:1.0;" x1="1233" x2="1720" y1="1204.4844" y2="1204.4844"/><ellipse cx="1243" cy="1218.1328" fill="#FFFFFF" rx="3" ry="3" style="stroke:#000000;stroke-width:1.0;"/><text fill="#000000" font-family="Verdana" font-size="14" lengthAdjust="spacing" textLength="359" x="1250" y="1221.4795">PlotUIState(Long, String, Boolean, Boolean, Long):</text><ellipse cx="1243" cy="1234.4297" fill="#FFFFFF" rx="3" ry="3" style="stroke:#000000;stroke-width:1.0;"/><text fill="#000000" font-family="Verdana" font-size="14" lengthAdjust="spacing" textLength="170" x="1250" y="1237.7764">component3(): Boolean</text><ellipse cx="1243" cy="1250.7266" fill="#FFFFFF" rx="3" ry="3" style="stroke:#000000;stroke-width:1.0;"/><text fill="#000000" font-family="Verdana" font-size="14" lengthAdjust="spacing" textLength="155" x="1250" y="1254.0732">component2(): String</text><ellipse cx="1243" cy="1267.0234" fill="#FFFFFF" rx="3" ry="3" style="stroke:#000000;stroke-width:1.0;"/><text fill="#000000" font-family="Verdana" font-size="14" lengthAdjust="spacing" textLength="465" x="1250" y="1270.3701">copy-3J-VO9M(Long, String, Boolean, Boolean, Long): PlotUIState</text><ellipse cx="1243" cy="1283.3203" fill="#FFFFFF" rx="3" ry="3" style="stroke:#000000;stroke-width:1.0;"/><text fill="#000000" font-family="Verdana" font-size="14" lengthAdjust="spacing" textLength="147" x="1250" y="1286.667">component5(): Long</text><ellipse cx="1243" cy="1299.6172" fill="#FFFFFF" rx="3" ry="3" style="stroke:#000000;stroke-width:1.0;"/><text fill="#000000" font-family="Verdana" font-size="14" lengthAdjust="spacing" textLength="123" x="1250" y="1302.9639">toString(): String</text><ellipse cx="1243" cy="1315.9141" fill="#FFFFFF" rx="3" ry="3" style="stroke:#000000;stroke-width:1.0;"/><text fill="#000000" font-family="Verdana" font-size="14" lengthAdjust="spacing" textLength="169" x="1250" y="1319.2607">component4(): Boolean</text><ellipse cx="1243" cy="1332.2109" fill="#FFFFFF" rx="3" ry="3" style="stroke:#000000;stroke-width:1.0;"/><text fill="#000000" font-family="Verdana" font-size="14" lengthAdjust="spacing" textLength="210" x="1250" y="1335.5576">component1-0d7_KjU(): Long</text><ellipse cx="1243" cy="1348.5078" fill="#FFFFFF" rx="3" ry="3" style="stroke:#000000;stroke-width:1.0;"/><text fill="#000000" font-family="Verdana" font-size="14" lengthAdjust="spacing" textLength="93" x="1250" y="1351.8545">toPlot(): Plot</text><ellipse cx="1243" cy="1364.8047" fill="#FFFFFF" rx="3" ry="3" style="stroke:#000000;stroke-width:1.0;"/><text fill="#000000" font-family="Verdana" font-size="14" lengthAdjust="spacing" textLength="109" x="1250" y="1368.1514">hashCode(): Int</text><ellipse cx="1243" cy="1381.1016" fill="#FFFFFF" rx="3" ry="3" style="stroke:#000000;stroke-width:1.0;"/><text fill="#000000" font-family="Verdana" font-size="14" lengthAdjust="spacing" textLength="178" x="1250" y="1384.4482">equals(Object?): Boolean</text></g><!--class PlotViewModel--><g id="elem_PlotViewModel"><rect codeLine="77" fill="#FFFFFF" height="272.1563" id="PlotViewModel" rx="2.5" ry="2.5" style="stroke:#000000;stroke-width:1.0;" width="476" x="521.5" y="755"/><ellipse cx="702.75" cy="769" fill="#FFFFFF" rx="9" ry="9" style="stroke:#000000;stroke-width:1.0;"/><path d="M705.0938,764.6719 C704.1563,764.2344 703.5625,764.0938 702.6875,764.0938 C700.0625,764.0938 698.0625,766.1719 698.0625,768.8906 L698.0625,770.0156 C698.0625,772.5938 700.1719,774.4844 703.0625,774.4844 C704.2813,774.4844 705.4375,774.1875 706.1875,773.6406 C706.7656,773.2344 707.0938,772.7813 707.0938,772.3906 C707.0938,771.9375 706.7031,771.5469 706.2344,771.5469 C706.0156,771.5469 705.8125,771.625 705.625,771.8125 C705.1719,772.2969 705.1719,772.2969 704.9844,772.3906 C704.5625,772.6563 703.875,772.7813 703.1094,772.7813 C701.0625,772.7813 699.7656,771.6875 699.7656,769.9844 L699.7656,768.8906 C699.7656,767.1094 701.0156,765.7969 702.75,765.7969 C703.3281,765.7969 703.9375,765.9531 704.4063,766.2031 C704.8906,766.4844 705.0625,766.7031 705.1563,767.1094 C705.2188,767.5156 705.25,767.6406 705.3906,767.7656 C705.5313,767.9063 705.7656,768.0156 705.9844,768.0156 C706.25,768.0156 706.5156,767.875 706.6875,767.6563 C706.7969,767.5 706.8281,767.3125 706.8281,766.8906 L706.8281,765.4688 C706.8281,765.0313 706.8125,764.9063 706.7188,764.75 C706.5625,764.4844 706.2813,764.3438 705.9844,764.3438 C705.6875,764.3438 705.4844,764.4375 705.2656,764.75 L705.0938,764.6719 Z " fill="#000000"/><text fill="#000000" font-family="Verdana" font-size="14" lengthAdjust="spacing" textLength="106" x="720.25" y="773.8467">PlotViewModel</text><line style="stroke:#000000;stroke-width:1.0;" x1="522.5" x2="996.5" y1="783" y2="783"/><text fill="#000000" font-family="Verdana" font-size="14" lengthAdjust="spacing" textLength="316" x="527.5" y="799.9951">plotUIState: StateFlow&lt;List&lt;PlotUIState&gt;&gt;</text><line style="stroke:#000000;stroke-width:1.0;" x1="522.5" x2="996.5" y1="807.2969" y2="807.2969"/><ellipse cx="532.5" cy="820.9453" fill="#FFFFFF" rx="3" ry="3" style="stroke:#000000;stroke-width:1.0;"/><text fill="#000000" font-family="Verdana" font-size="14" lengthAdjust="spacing" textLength="229" x="539.5" y="824.292">PlotViewModel(PlotRepository):</text><ellipse cx="532.5" cy="837.2422" fill="#FFFFFF" rx="3" ry="3" style="stroke:#000000;stroke-width:1.0;"/><text fill="#000000" font-family="Verdana" font-size="14" lengthAdjust="spacing" textLength="354" x="539.5" y="840.5889">changePlotFormulaSync(PlotUIState, String): Unit</text><ellipse cx="532.5" cy="853.5391" fill="#FFFFFF" rx="3" ry="3" style="stroke:#000000;stroke-width:1.0;"/><text fill="#000000" font-family="Verdana" font-size="14" lengthAdjust="spacing" textLength="157" x="539.5" y="856.8857">removeAllPlots(): Unit</text><ellipse cx="532.5" cy="869.8359" fill="#FFFFFF" rx="3" ry="3" style="stroke:#000000;stroke-width:1.0;"/><text fill="#000000" font-family="Verdana" font-size="14" lengthAdjust="spacing" textLength="246" x="539.5" y="873.1826">createNewSync(Long, String): Unit</text><ellipse cx="532.5" cy="886.1328" fill="#FFFFFF" rx="3" ry="3" style="stroke:#000000;stroke-width:1.0;"/><text fill="#000000" font-family="Verdana" font-size="14" lengthAdjust="spacing" textLength="248" x="539.5" y="889.4795">removePlotSync(PlotUIState): Unit</text><ellipse cx="532.5" cy="902.4297" fill="#FFFFFF" rx="3" ry="3" style="stroke:#000000;stroke-width:1.0;"/><text fill="#000000" font-family="Verdana" font-size="14" lengthAdjust="spacing" textLength="320" x="539.5" y="905.7764">changeHideState(PlotUIState, Boolean): Unit</text><rect fill="#FFFFFF" height="6" style="stroke:#000000;stroke-width:1.0;" width="6" x="529.5" y="915.7266"/><text fill="#000000" font-family="Verdana" font-size="14" lengthAdjust="spacing" textLength="452" x="539.5" y="922.0732">updateProperty(PlotUIState, (PlotUIState) -&gt; PlotUIState): Unit</text><ellipse cx="532.5" cy="935.0234" fill="#FFFFFF" rx="3" ry="3" style="stroke:#000000;stroke-width:1.0;"/><text fill="#000000" font-family="Verdana" font-size="14" lengthAdjust="spacing" textLength="152" x="539.5" y="938.3701">loadStateSync(): Unit</text><rect fill="#FFFFFF" height="6" style="stroke:#000000;stroke-width:1.0;" width="6" x="529.5" y="948.3203"/><text fill="#000000" font-family="Verdana" font-size="14" lengthAdjust="spacing" textLength="193" x="539.5" y="954.667">isInvalidIndex(Int): Boolean</text><ellipse cx="532.5" cy="967.6172" fill="#FFFFFF" rx="3" ry="3" style="stroke:#000000;stroke-width:1.0;"/><text fill="#000000" font-family="Verdana" font-size="14" lengthAdjust="spacing" textLength="263" x="539.5" y="970.9639">changeColor(PlotUIState, Long): Unit</text><ellipse cx="532.5" cy="983.9141" fill="#FFFFFF" rx="3" ry="3" style="stroke:#000000;stroke-width:1.0;"/><text fill="#000000" font-family="Verdana" font-size="14" lengthAdjust="spacing" textLength="215" x="539.5" y="987.2607">restorePreviousSession(): Unit</text><ellipse cx="532.5" cy="1000.2109" fill="#FFFFFF" rx="3" ry="3" style="stroke:#000000;stroke-width:1.0;"/><text fill="#000000" font-family="Verdana" font-size="14" lengthAdjust="spacing" textLength="154" x="539.5" y="1003.5576">saveStateSync(): Unit</text><ellipse cx="532.5" cy="1016.5078" fill="#FFFFFF" rx="3" ry="3" style="stroke:#000000;stroke-width:1.0;"/><text fill="#000000" font-family="Verdana" font-size="14" lengthAdjust="spacing" textLength="331" x="539.5" y="1019.8545">changePlotValidity(PlotUIState, Boolean): Unit</text></g><!--class Screen--><g id="elem_Screen"><rect codeLine="93" fill="#FFFFFF" height="76.5938" id="Screen" rx="2.5" ry="2.5" style="stroke:#000000;stroke-width:1.0;" width="133" x="1976" y="1201"/><ellipse cx="2013.75" cy="1215" fill="#FFFFFF" rx="9" ry="9" style="stroke:#000000;stroke-width:1.0;"/><path d="M2016.0938,1210.6719 C2015.1563,1210.2344 2014.5625,1210.0938 2013.6875,1210.0938 C2011.0625,1210.0938 2009.0625,1212.1719 2009.0625,1214.8906 L2009.0625,1216.0156 C2009.0625,1218.5938 2011.1719,1220.4844 2014.0625,1220.4844 C2015.2813,1220.4844 2016.4375,1220.1875 2017.1875,1219.6406 C2017.7656,1219.2344 2018.0938,1218.7813 2018.0938,1218.3906 C2018.0938,1217.9375 2017.7031,1217.5469 2017.2344,1217.5469 C2017.0156,1217.5469 2016.8125,1217.625 2016.625,1217.8125 C2016.1719,1218.2969 2016.1719,1218.2969 2015.9844,1218.3906 C2015.5625,1218.6563 2014.875,1218.7813 2014.1094,1218.7813 C2012.0625,1218.7813 2010.7656,1217.6875 2010.7656,1215.9844 L2010.7656,1214.8906 C2010.7656,1213.1094 2012.0156,1211.7969 2013.75,1211.7969 C2014.3281,1211.7969 2014.9375,1211.9531 2015.4063,1212.2031 C2015.8906,1212.4844 2016.0625,1212.7031 2016.1563,1213.1094 C2016.2188,1213.5156 2016.25,1213.6406 2016.3906,1213.7656 C2016.5313,1213.9063 2016.7656,1214.0156 2016.9844,1214.0156 C2017.25,1214.0156 2017.5156,1213.875 2017.6875,1213.6563 C2017.7969,1213.5 2017.8281,1213.3125 2017.8281,1212.8906 L2017.8281,1211.4688 C2017.8281,1211.0313 2017.8125,1210.9063 2017.7188,1210.75 C2017.5625,1210.4844 2017.2813,1210.3438 2016.9844,1210.3438 C2016.6875,1210.3438 2016.4844,1210.4375 2016.2656,1210.75 L2016.0938,1210.6719 Z " fill="#000000"/><text fill="#000000" font-family="Verdana" font-size="14" lengthAdjust="spacing" textLength="50" x="2031.25" y="1219.8467">Screen</text><line style="stroke:#000000;stroke-width:1.0;" x1="1977" x2="2108" y1="1229" y2="1229"/><text fill="#000000" font-family="Verdana" font-size="14" lengthAdjust="spacing" textLength="92" x="1982" y="1245.9951">route: String</text><line style="stroke:#000000;stroke-width:1.0;" x1="1977" x2="2108" y1="1253.2969" y2="1253.2969"/><polygon fill="#FFFFFF" points="1987,1261.9453,1991,1265.9453,1987,1269.9453,1983,1265.9453" style="stroke:#000000;stroke-width:1.0;"/><text fill="#000000" font-family="Verdana" font-size="14" lengthAdjust="spacing" textLength="109" x="1994" y="1270.292">Screen(String):</text></g><!--link AppContainerImpl to AppContainer--><g id="link_AppContainerImpl_AppContainer"><path codeLine="98" d="M274,558.177 C274,578.046 274,582.892 274,601.559 " fill="none" id="AppContainerImpl-to-AppContainer" style="stroke:#008200;stroke-width:1.0;stroke-dasharray:7.0,7.0;"/><polygon fill="none" points="274,619.559,280,601.559,268,601.559,274,619.559" style="stroke:#008200;stroke-width:1.0;"/></g><!--link AppContainerImpl to EtherealPlotDatabase--><g id="link_AppContainerImpl_EtherealPlotDatabase"><path codeLine="99" d="M137.25,558.177 C137.25,577.384 137.25,593.373 137.25,611.678 " fill="none" id="AppContainerImpl-to-EtherealPlotDatabase" style="stroke:#595959;stroke-width:1.0;stroke-dasharray:7.0,7.0;"/><polygon fill="#595959" points="137.25,617.678,141.25,608.678,137.25,612.678,133.25,608.678,137.25,617.678" style="stroke:#595959;stroke-width:1.0;"/></g><!--link CanvasScreen to Screen--><g id="link_CanvasScreen_Screen"><path codeLine="100" d="M1951.72,880 C1968.81,880 1982.6,880 1982.6,880 C1982.6,880 1982.6,1089.727 1982.6,1182.686 " fill="none" id="CanvasScreen-to-Screen" style="stroke:#000082;stroke-width:1.0;"/><polygon fill="none" points="1982.6,1200.686,1988.6,1182.686,1976.6,1182.686,1982.6,1200.686" style="stroke:#000082;stroke-width:1.0;"/></g><!--reverse link CanvasScreen to Screen--><g id="link_CanvasScreen_Screen"><path codeLine="101" d="M1967.52,891 C1983.61,891 1980.4,891 1980.4,891 C1980.4,891 1980.4,1110.137 1980.4,1200.873 " fill="none" id="CanvasScreen-backto-Screen" style="stroke:#820000;stroke-width:1.0;"/><ellipse cx="1959.52" cy="891" fill="#FFFFFF" rx="8" ry="8" style="stroke:#820000;stroke-width:1.0;"/><line style="stroke:#820000;stroke-width:1.0;" x1="1967.52" x2="1951.52" y1="891" y2="891"/><line style="stroke:#820000;stroke-width:1.0;" x1="1959.52" x2="1959.52" y1="899" y2="883"/></g><!--link CanvasScreen to Screen--><g id="link_CanvasScreen_Screen"><path codeLine="102" d="M1951.97,902 C1966.74,902 1978.2,902 1978.2,902 C1978.2,902 1978.2,1106.134 1978.2,1194.784 " fill="none" id="CanvasScreen-to-Screen-1" style="stroke:#595959;stroke-width:1.0;stroke-dasharray:7.0,7.0;"/><polygon fill="#595959" points="1978.2,1200.784,1982.2,1191.784,1978.2,1195.784,1974.2,1191.784,1978.2,1200.784" style="stroke:#595959;stroke-width:1.0;"/><text fill="#000000" font-family="Verdana" font-size="13" lengthAdjust="spacing" textLength="41" x="1936.2" y="1034.3419">create</text></g><!--reverse link Companion to PlotViewModel--><g id="link_Companion_PlotViewModel"><path codeLine="103" d="M707.167,702.677 C707.167,720.799 707.167,729.279 707.167,754.994 " fill="none" id="Companion-backto-PlotViewModel" style="stroke:#820000;stroke-width:1.0;"/><ellipse cx="707.167" cy="694.677" fill="#FFFFFF" rx="8" ry="8" style="stroke:#820000;stroke-width:1.0;"/><line style="stroke:#820000;stroke-width:1.0;" x1="707.167" x2="707.167" y1="702.677" y2="686.677"/><line style="stroke:#820000;stroke-width:1.0;" x1="699.167" x2="715.167" y1="694.677" y2="694.677"/></g><!--link Companion to PlotViewModel--><g id="link_Companion_PlotViewModel"><path codeLine="104" d="M811.833,686.677 C811.833,704.799 811.833,723.279 811.833,748.994 " fill="none" id="Companion-to-PlotViewModel" style="stroke:#595959;stroke-width:1.0;stroke-dasharray:7.0,7.0;"/><polygon fill="#595959" points="811.833,754.994,815.833,745.994,811.833,749.994,807.833,745.994,811.833,754.994" style="stroke:#595959;stroke-width:1.0;"/><text fill="#000000" font-family="Verdana" font-size="13" lengthAdjust="spacing" textLength="41" x="769.833" y="716.9019">create</text></g><!--link EtherealPlotAppKt to AppContainer--><g id="link_EtherealPlotAppKt_AppContainer"><path codeLine="105" d="M446.25,541.544 C446.25,564.273 446.25,589.597 446.25,613.808 " fill="none" id="EtherealPlotAppKt-to-AppContainer" style="stroke:#595959;stroke-width:1.0;stroke-dasharray:7.0,7.0;"/><polygon fill="#595959" points="446.25,619.808,450.25,610.808,446.25,614.808,442.25,610.808,446.25,619.808" style="stroke:#595959;stroke-width:1.0;"/></g><!--link EtherealPlotAppKt to Companion--><g id="link_EtherealPlotAppKt_Companion"><path codeLine="106" d="M652.75,541.544 C652.75,566.43 652.75,595.619 652.75,620.494 " fill="none" id="EtherealPlotAppKt-to-Companion" style="stroke:#595959;stroke-width:1.0;stroke-dasharray:7.0,7.0;"/><polygon fill="#595959" points="652.75,626.494,656.75,617.494,652.75,621.494,648.75,617.494,652.75,626.494" style="stroke:#595959;stroke-width:1.0;"/></g><!--link EtherealPlotAppKt to PlotViewModel--><g id="link_EtherealPlotAppKt_PlotViewModel"><path codeLine="107" d="M562,541.596 C562,587.44 562,671.6 562,748.849 " fill="none" id="EtherealPlotAppKt-to-PlotViewModel" style="stroke:#595959;stroke-width:1.0;stroke-dasharray:7.0,7.0;"/><polygon fill="#595959" points="562,754.849,566,745.849,562,749.849,558,745.849,562,754.849" style="stroke:#595959;stroke-width:1.0;"/></g><!--link EtherealPlotApplication to AppContainer--><g id="link_EtherealPlotApplication_AppContainer"><path codeLine="108" d="M327.833,417.06 C327.833,476.321 327.833,559.476 327.833,613.66 " fill="none" id="EtherealPlotApplication-AppContainer" style="stroke:#595959;stroke-width:1.0;"/><polygon fill="#595959" points="327.833,405.06,323.833,411.06,327.833,417.06,331.833,411.06,327.833,405.06" style="stroke:#595959;stroke-width:1.0;"/><polygon fill="#595959" points="327.833,619.66,331.833,610.66,327.833,614.66,323.833,610.66,327.833,619.66" style="stroke:#595959;stroke-width:1.0;"/><text fill="#000000" font-family="Verdana" font-size="13" lengthAdjust="spacing" textLength="8" x="327.6663" y="425.0847">1</text><text fill="#000000" font-family="Verdana" font-size="13" lengthAdjust="spacing" textLength="60" x="257.7777" y="593.8427">container</text><text fill="#000000" font-family="Verdana" font-size="13" lengthAdjust="spacing" textLength="8" x="283.7777" y="608.9755">1</text></g><!--link EtherealPlotApplication to AppContainerImpl--><g id="link_EtherealPlotApplication_AppContainerImpl"><path codeLine="109" d="M234,405.24 C234,424.131 234,439.895 234,458.786 " fill="none" id="EtherealPlotApplication-to-AppContainerImpl" style="stroke:#595959;stroke-width:1.0;stroke-dasharray:7.0,7.0;"/><polygon fill="#595959" points="234,464.786,238,455.786,234,459.786,230,455.786,234,464.786" style="stroke:#595959;stroke-width:1.0;"/><text fill="#000000" font-family="Verdana" font-size="13" lengthAdjust="spacing" textLength="41" x="192" y="431.0779">create</text></g><!--link EtherealPlotApplication to EtherealPlotApplication--><g id="link_EtherealPlotApplication_EtherealPlotApplication"><path codeLine="110" d="M372.25,311.95 C372.25,300.78 372.25,292 372.25,292 C372.25,292 390,292 390,292 C390,292 390,435 390,435 C390,435 352.167,435 352.167,435 C352.167,435 352.167,427.131 352.167,411.2 " fill="none" id="EtherealPlotApplication-to-EtherealPlotApplication" style="stroke:#595959;stroke-width:1.0;stroke-dasharray:7.0,7.0;"/><polygon fill="#595959" points="352.167,405.2,348.167,414.2,352.167,410.2,356.167,414.2,352.167,405.2" style="stroke:#595959;stroke-width:1.0;"/></g><!--link ExtKt to PlotUIState--><g id="link_ExtKt_PlotUIState"><path codeLine="111" d="M1428,945.836 C1428,983.886 1428,1030.572 1428,1080.827 " fill="none" id="ExtKt-to-PlotUIState" style="stroke:#595959;stroke-width:1.0;stroke-dasharray:7.0,7.0;"/><polygon fill="#595959" points="1428,1086.827,1432,1077.827,1428,1081.827,1424,1077.827,1428,1086.827" style="stroke:#595959;stroke-width:1.0;"/><text fill="#000000" font-family="Verdana" font-size="13" lengthAdjust="spacing" textLength="41" x="1386" y="1012.3989">create</text></g><!--link MainActivity to EtherealPlotApplication--><g id="link_MainActivity_EtherealPlotApplication"><path codeLine="112" d="M270.5,179.22 C270.5,216.3 270.5,266.28 270.5,305.8 " fill="none" id="MainActivity-to-EtherealPlotApplication" style="stroke:#595959;stroke-width:1.0;stroke-dasharray:7.0,7.0;"/><polygon fill="#595959" points="270.5,311.8,274.5,302.8,270.5,306.8,266.5,302.8,270.5,311.8" style="stroke:#595959;stroke-width:1.0;"/></g><!--reverse link MainScreen to Screen--><g id="link_MainScreen_Screen"><path codeLine="113" d="M2014.75,929.065 C2014.75,986.969 2014.75,1127.838 2014.75,1200.983 " fill="none" id="MainScreen-backto-Screen" style="stroke:#820000;stroke-width:1.0;"/><ellipse cx="2014.75" cy="921.065" fill="#FFFFFF" rx="8" ry="8" style="stroke:#820000;stroke-width:1.0;"/><line style="stroke:#820000;stroke-width:1.0;" x1="2014.75" x2="2014.75" y1="929.065" y2="913.065"/><line style="stroke:#820000;stroke-width:1.0;" x1="2006.75" x2="2022.75" y1="921.065" y2="921.065"/></g><!--link MainScreen to Screen--><g id="link_MainScreen_Screen"><path codeLine="114" d="M2042.5,913.065 C2042.5,970.969 2042.5,1109.838 2042.5,1182.983 " fill="none" id="MainScreen-to-Screen" style="stroke:#000082;stroke-width:1.0;"/><polygon fill="none" points="2042.5,1200.983,2048.5,1182.983,2036.5,1182.983,2042.5,1200.983" style="stroke:#000082;stroke-width:1.0;"/></g><!--link MainScreen to Screen--><g id="link_MainScreen_Screen"><path codeLine="115" d="M2070.25,913.065 C2070.25,970.969 2070.25,1121.838 2070.25,1194.983 " fill="none" id="MainScreen-to-Screen-1" style="stroke:#595959;stroke-width:1.0;stroke-dasharray:7.0,7.0;"/><polygon fill="#595959" points="2070.25,1200.983,2074.25,1191.983,2070.25,1195.983,2066.25,1191.983,2070.25,1200.983" style="stroke:#595959;stroke-width:1.0;"/><text fill="#000000" font-family="Verdana" font-size="13" lengthAdjust="spacing" textLength="41" x="2028.25" y="1053.0909">create</text></g><!--link MathParser to MathParser--><g id="link_MathParser_MathParser"><path codeLine="116" d="M618.5,28.73 C618.5,18 618.5,11 618.5,11 C618.5,11 875,11 875,11 C875,11 875,272 875,272 C875,272 768.25,272 768.25,272 C768.25,272 768.25,270.04 768.25,258.03 " fill="none" id="MathParser-to-MathParser" style="stroke:#595959;stroke-width:1.0;stroke-dasharray:7.0,7.0;"/><polygon fill="#595959" points="768.25,252.03,764.25,261.03,768.25,257.03,772.25,261.03,768.25,252.03" style="stroke:#595959;stroke-width:1.0;"/></g><!--link MockPlotsKt to PlotUIState--><g id="link_MockPlotsKt_PlotUIState"><path codeLine="117" d="M1601,921.015 C1601,958.246 1601,1018.461 1601,1080.907 " fill="none" id="MockPlotsKt-to-PlotUIState" style="stroke:#595959;stroke-width:1.0;stroke-dasharray:7.0,7.0;"/><polygon fill="#595959" points="1601,1086.907,1605,1077.907,1601,1081.907,1597,1077.907,1601,1086.907" style="stroke:#595959;stroke-width:1.0;"/><text fill="#000000" font-family="Verdana" font-size="13" lengthAdjust="spacing" textLength="41" x="1559" y="1000.0279">create</text></g><!--link MockPlotsKt to PlotUIState--><g id="link_MockPlotsKt_PlotUIState"><path codeLine="118" d="M1641,933.015 C1641,970.246 1641,1018.461 1641,1080.907 " fill="none" id="MockPlotsKt-PlotUIState" style="stroke:#595959;stroke-width:1.0;"/><polygon fill="#595959" points="1641,921.015,1637,927.015,1641,933.015,1645,927.015,1641,921.015" style="stroke:#595959;stroke-width:1.0;"/><polygon fill="#595959" points="1641,1086.907,1645,1077.907,1641,1081.907,1637,1077.907,1641,1086.907" style="stroke:#595959;stroke-width:1.0;"/><text fill="#000000" font-family="Verdana" font-size="13" lengthAdjust="spacing" textLength="8" x="1624.7969" y="941.2704">1</text><text fill="#000000" font-family="Verdana" font-size="13" lengthAdjust="spacing" textLength="66" x="1581.3695" y="1060.8686">mockPlots</text><text fill="#000000" font-family="Verdana" font-size="13" lengthAdjust="spacing" textLength="7" x="1610.8695" y="1076.0014">*</text></g><!--link NavigationGraphKt to CanvasScreen--><g id="link_NavigationGraphKt_CanvasScreen"><path codeLine="119" d="M1896.5,686.677 C1896.5,734.549 1896.5,820.786 1896.5,862.971 " fill="none" id="NavigationGraphKt-to-CanvasScreen" style="stroke:#595959;stroke-width:1.0;stroke-dasharray:7.0,7.0;"/><polygon fill="#595959" points="1896.5,868.971,1900.5,859.971,1896.5,863.971,1892.5,859.971,1896.5,868.971" style="stroke:#595959;stroke-width:1.0;"/></g><!--link NavigationGraphKt to MainScreen--><g id="link_NavigationGraphKt_MainScreen"><path codeLine="120" d="M2038.25,686.677 C2038.25,734.549 2038.25,820.786 2038.25,862.971 " fill="none" id="NavigationGraphKt-to-MainScreen" style="stroke:#595959;stroke-width:1.0;stroke-dasharray:7.0,7.0;"/><polygon fill="#595959" points="2038.25,868.971,2042.25,859.971,2038.25,863.971,2034.25,859.971,2038.25,868.971" style="stroke:#595959;stroke-width:1.0;"/></g><!--link NavigationGraphKt to PlotViewModel--><g id="link_NavigationGraphKt_PlotViewModel"><path codeLine="121" d="M1841.33,657 C1571.77,657 957,657 957,657 C957,657 957,697.403 957,748.881 " fill="none" id="NavigationGraphKt-to-PlotViewModel" style="stroke:#595959;stroke-width:1.0;stroke-dasharray:7.0,7.0;"/><polygon fill="#595959" points="957,754.881,961,745.881,957,749.881,953,745.881,957,754.881" style="stroke:#595959;stroke-width:1.0;"/></g><!--link NavigationGraphKt to Screen--><g id="link_NavigationGraphKt_Screen"><path codeLine="122" d="M1984.8,686.617 C1984.8,784.198 1984.8,1085.646 1984.8,1194.683 " fill="none" id="NavigationGraphKt-to-Screen" style="stroke:#595959;stroke-width:1.0;stroke-dasharray:7.0,7.0;"/><polygon fill="#595959" points="1984.8,1200.683,1988.8,1191.683,1984.8,1195.683,1980.8,1191.683,1984.8,1200.683" style="stroke:#595959;stroke-width:1.0;"/></g><!--link PlotUIState to PlotUIState--><g id="link_PlotUIState_PlotUIState"><path codeLine="123" d="M1681,1086.728 C1681,1068.947 1681,1057 1681,1057 C1681,1057 1754.5,1057 1754.5,1057 C1754.5,1057 1754.5,1410 1754.5,1410 C1754.5,1410 1476.5,1410 1476.5,1410 C1476.5,1410 1476.5,1409.0998 1476.5,1398.0758 " fill="none" id="PlotUIState-to-PlotUIState" style="stroke:#595959;stroke-width:1.0;stroke-dasharray:7.0,7.0;"/><polygon fill="#595959" points="1476.5,1392.0758,1472.5,1401.0758,1476.5,1397.0758,1480.5,1401.0758,1476.5,1392.0758" style="stroke:#595959;stroke-width:1.0;"/></g><!--link PlotViewModel to PlotUIState--><g id="link_PlotViewModel_PlotUIState"><path codeLine="124" d="M997.725,987 C1154.16,987 1330,987 1330,987 C1330,987 1330,1027.619 1330,1080.795 " fill="none" id="PlotViewModel-to-PlotUIState" style="stroke:#595959;stroke-width:1.0;stroke-dasharray:7.0,7.0;"/><polygon fill="#595959" points="1330,1086.795,1334,1077.795,1330,1081.795,1326,1077.795,1330,1086.795" style="stroke:#595959;stroke-width:1.0;"/><text fill="#000000" font-family="Verdana" font-size="13" lengthAdjust="spacing" textLength="41" x="1171.76" y="983.0669">create</text></g><!--SRC=[hLRDSjis4BxpAL3vGiVIZ98qqqRZaSUMuqPDR6cisfUcpK0a8Y4c0HQ49AkTF54VeRSyMHSWI88_aAMqz8n5xYw-_L_iTt99OeAI25FcIPuWoT6SIybZ55910aavyz87oX8iS8mYoeZS9WHn8PVSyoYJH7p20K7dIJBYJ08C4UZq59MSuH3zvI44EhYy9GbFgUHYEq3JohVtnGiYdAOLe76SHFhmIOFigo_oA8y7Q0zma0Zd0_G6l1K4HufxYIMUuvGKYaUOhN4w2mGXB2VnEC4CGc2CI0HVqv1SuK2X-bKbO8bX592sFd3WdJGuDRflEmSmTunA5qP40onBYnnSFmlB2U9i16n9_1mM8X7agWQLgBPgpAFKeYvd6Lqen3oB-oNc9TQZBBmMc8KyzekWmhdtd2qqRqFbSiGZBlmf62ExQAp-PH_7g3VKnfS-dA1GuCqlaFynkwMBfRpCYzNFqjX5CoaeMtJHLSInB7uoG0j7ScNotNWcLPJK-t7cXI4Ldbp3oNDGiQPoQnooIIOAHsN4BrOiZCXPFP_gKAN8hh5SJh58eMzos9pWPqxaoKo9lCU2udb4_DozIxw2Jv0eJu5i3tqaQnmfep81VRv1wg4bLaPUK8R5TfBuxsagJpFeOHb2csh7Jk5DnCqgYdpVsA5ILPYKlPnPYaOHD0jRN0WSF11PKzUkfWSfUY2C_adAQDYIHkHsUhERdx29U1Cda2cN6189gn6BfF7WGHL5QeePnJd17B0gfZnrWzTqeVln9u6JPT48GDS4NMxtb6okUKYYUg5OaEQSNQcgSyeCNN0U4Soi5yNFwoQ0ZkECCFbIPT-8L3al52T3CunastlvS-z-ylfwNrrsrrJ0N_bsgqkU8JKq6kdldKO-x_N37pw- -tnNmrEAVME09Yrn2jCarAC91abMh7-iS9Jwa_bd61Hd5HMW0IPF0Oa-hPYU9PPzY8Ob7yfUVLe0QvfIAFMIPYUnoB2LneBMl4Godw5V5aJnhhY8Ln6URLdWMn7Eys7teo0nNvFpI8_drBTPWPv9DsIZSUo4DW7KwRgw2fQsxIrSXENGBAmo0R3xTvM4m9eAdX0XjrNnYWurF1mwONg7cgWDiz5fEcOw8MCMaaT_hCTxfNoqkUPoiNMRihMyJo45O2XPKxvAPoHDpLLQYAHuJThCi1DshuoXTKSRST4hYs6hGeCVkACsfurnKiwJxDhGLNHaFYet119ybO7fgltYUOrbAdzwlnxr-p- -wFUx8VGA2N_h_OwgEvprx8HvzLhz5J13rBu_A1XxmxBnCskKFLszY6fZMiJGRfGJW54kWLC6vbjGMbromGnGv-lVMMzz_QVZbVjYxMaphJeQRDDSAAsckM1gfZLNqLsWpaeu3CRboO4mpaYvTkFEymvwLaAPa0zHfrXzFp0GsTVB0lVfODdTiJi3Ju2wfBriesvvdA7BbuWTXLjPRfy4TTfMxhPxrB-pDPqe1us9NIZVtE3Mhhu7g4lQizV9_o-73b1dCnGxx0VshEFKuZMts9qjxvYh1yAuidSWZ7Do70RZB39Nq0vBfESoyx_Kmxy0]--></g></svg>